<svg xmlns="http://www.w3.org/2000/svg" viewBox="0 0 500 100" width="500" height="100">
  <!-- Scattered dots -->
  <circle cx="10" cy="6"  r="4" fill="white" opacity="0.35" />
  <circle cx="30" cy="2"  r="4" fill="white" opacity="0.35" />
  <circle cx="18" cy="26" r="4" fill="white" opacity="0.35" />
  <circle cx="42" cy="16" r="4" fill="white" opacity="0.35" />
  <circle cx="6"  cy="42" r="4" fill="white" opacity="0.35" />
  <circle cx="34" cy="44" r="4" fill="white" opacity="0.35" />
  <circle cx="50" cy="4"  r="4" fill="white" opacity="0.35" />
  <circle cx="52" cy="36" r="4" fill="white" opacity="0.35" />
  <circle cx="22" cy="60" r="4" fill="white" opacity="0.35" />

  <!-- Converging lines -->
  <line x1="10" y1="6"  x2="60" y2="56" stroke="white" stroke-width="0.5" opacity="0.2" />
  <line x1="30" y1="2"  x2="70" y2="56" stroke="white" stroke-width="0.5" opacity="0.2" />
  <line x1="18" y1="26" x2="63" y2="66" stroke="white" stroke-width="0.5" opacity="0.2" />
  <line x1="42" y1="16" x2="72" y2="62" stroke="white" stroke-width="0.5" opacity="0.2" />
  <line x1="6"  y1="42" x2="58" y2="70" stroke="white" stroke-width="0.5" opacity="0.2" />
  <line x1="34" y1="44" x2="66" y2="70" stroke="white" stroke-width="0.5" opacity="0.2" />
  <line x1="50" y1="4"  x2="74" y2="56" stroke="white" stroke-width="0.5" opacity="0.2" />
  <line x1="52" y1="36" x2="76" y2="64" stroke="white" stroke-width="0.5" opacity="0.2" />
  <line x1="22" y1="60" x2="62" y2="72" stroke="white" stroke-width="0.5" opacity="0.2" />

  <!-- Compressed 3x3 grid (center at 70, 66) -->
  <circle cx="60" cy="56" r="5" fill="white" />
  <circle cx="72" cy="56" r="5" fill="white" />
  <circle cx="84" cy="56" r="5" fill="white" />
  <circle cx="60" cy="68" r="5" fill="white" />
  <circle cx="72" cy="68" r="5" fill="#4cc9f0" />
  <circle cx="84" cy="68" r="5" fill="white" />
  <circle cx="60" cy="80" r="5" fill="white" />
  <circle cx="72" cy="80" r="5" fill="white" />
  <circle cx="84" cy="80" r="5" fill="white" />

  <!-- Library name (vertically centered with grid: grid center y=68) -->
  <text x="108" y="68" dominant-baseline="central" font-family="system-ui, -apple-system, 'Segoe UI', sans-serif" font-weight="700" font-size="44" fill="#e8e8e8" letter-spacing="-1">turboquant-js</text>
</svg>
