<svg xmlns="http://www.w3.org/2000/svg" viewBox="0 0 440 92" width="440" height="92">
  <!-- Scattered dots -->
  <circle cx="12" cy="10" r="4" fill="#4361ee" opacity="0.3" />
  <circle cx="32" cy="6"  r="4" fill="#4361ee" opacity="0.3" />
  <circle cx="20" cy="30" r="4" fill="#4361ee" opacity="0.3" />
  <circle cx="44" cy="20" r="4" fill="#4361ee" opacity="0.3" />
  <circle cx="8"  cy="46" r="4" fill="#4361ee" opacity="0.3" />
  <circle cx="36" cy="48" r="4" fill="#4361ee" opacity="0.3" />
  <circle cx="52" cy="8"  r="4" fill="#4361ee" opacity="0.3" />
  <circle cx="54" cy="40" r="4" fill="#4361ee" opacity="0.3" />
  <circle cx="24" cy="64" r="4" fill="#4361ee" opacity="0.3" />

  <!-- Converging lines -->
  <line x1="12" y1="10" x2="62" y2="52" stroke="#4361ee" stroke-width="0.5" opacity="0.15" />
  <line x1="32" y1="6"  x2="72" y2="52" stroke="#4361ee" stroke-width="0.5" opacity="0.15" />
  <line x1="20" y1="30" x2="65" y2="62" stroke="#4361ee" stroke-width="0.5" opacity="0.15" />
  <line x1="44" y1="20" x2="74" y2="58" stroke="#4361ee" stroke-width="0.5" opacity="0.15" />
  <line x1="8"  y1="46" x2="60" y2="66" stroke="#4361ee" stroke-width="0.5" opacity="0.15" />
  <line x1="36" y1="48" x2="68" y2="66" stroke="#4361ee" stroke-width="0.5" opacity="0.15" />
  <line x1="52" y1="8"  x2="76" y2="52" stroke="#4361ee" stroke-width="0.5" opacity="0.15" />
  <line x1="54" y1="40" x2="78" y2="60" stroke="#4361ee" stroke-width="0.5" opacity="0.15" />
  <line x1="24" y1="64" x2="64" y2="68" stroke="#4361ee" stroke-width="0.5" opacity="0.15" />

  <!-- Compressed 3x3 grid -->
  <circle cx="62" cy="52" r="5" fill="#4361ee" />
  <circle cx="74" cy="52" r="5" fill="#4361ee" />
  <circle cx="86" cy="52" r="5" fill="#4361ee" />
  <circle cx="62" cy="64" r="5" fill="#4361ee" />
  <circle cx="74" cy="64" r="5" fill="#4cc9f0" />
  <circle cx="86" cy="64" r="5" fill="#4361ee" />
  <circle cx="62" cy="76" r="5" fill="#4361ee" />
  <circle cx="74" cy="76" r="5" fill="#4361ee" />
  <circle cx="86" cy="76" r="5" fill="#4361ee" />

  <!-- Library name (vertically centered with grid center y=64) -->
  <text x="108" y="64" dominant-baseline="central" font-family="system-ui, -apple-system, 'Segoe UI', sans-serif" font-weight="700" font-size="44" fill="#1a1a2e" letter-spacing="-1">turboquant-js</text>
</svg>
